<mxfile host="app.diagrams.net" agent="Mozilla/5.0 (Windows NT 10.0; Win64; x64) AppleWebKit/537.36 (KHTML, like Gecko) Chrome/131.0.0.0 Safari/537.36" version="26.0.6">
  <diagram name="Page-1" id="d5reBK_8IKWecu4n62zQ">
    <mxGraphModel dx="592" dy="775" grid="1" gridSize="10" guides="1" tooltips="1" connect="1" arrows="1" fold="1" page="1" pageScale="1" pageWidth="3300" pageHeight="4681" background="#000000" math="0" shadow="0">
      <root>
        <mxCell id="0" />
        <mxCell id="1" parent="0" />
        <mxCell id="4yj2F9mNyj31AtL81ERM-1" value="" style="edgeStyle=orthogonalEdgeStyle;rounded=0;orthogonalLoop=1;jettySize=auto;html=1;" edge="1" parent="1" source="4yj2F9mNyj31AtL81ERM-2" target="4yj2F9mNyj31AtL81ERM-6">
          <mxGeometry relative="1" as="geometry" />
        </mxCell>
        <mxCell id="4yj2F9mNyj31AtL81ERM-2" value="Customers" style="rounded=1;whiteSpace=wrap;html=1;" vertex="1" parent="1">
          <mxGeometry x="90" y="130" width="230" height="60" as="geometry" />
        </mxCell>
        <mxCell id="4yj2F9mNyj31AtL81ERM-3" value="Entitet" style="text;html=1;strokeColor=none;fillColor=none;align=center;verticalAlign=middle;whiteSpace=wrap;rounded=0;" vertex="1" parent="1">
          <mxGeometry x="140" y="70" width="110" height="50" as="geometry" />
        </mxCell>
        <mxCell id="4yj2F9mNyj31AtL81ERM-4" value="" style="whiteSpace=wrap;html=1;aspect=fixed;" vertex="1" parent="1">
          <mxGeometry x="90" y="190" width="230" height="230" as="geometry" />
        </mxCell>
        <mxCell id="4yj2F9mNyj31AtL81ERM-5" value="customerID" style="text;html=1;strokeColor=none;fillColor=none;align=center;verticalAlign=middle;whiteSpace=wrap;rounded=0;" vertex="1" parent="1">
          <mxGeometry x="100" y="250" width="60" height="30" as="geometry" />
        </mxCell>
        <mxCell id="4yj2F9mNyj31AtL81ERM-6" value="Coloumn" style="text;html=1;strokeColor=none;fillColor=none;align=center;verticalAlign=middle;whiteSpace=wrap;rounded=0;" vertex="1" parent="1">
          <mxGeometry x="100" y="200" width="60" height="30" as="geometry" />
        </mxCell>
        <mxCell id="4yj2F9mNyj31AtL81ERM-7" value="Data tyoe" style="text;html=1;strokeColor=none;fillColor=none;align=center;verticalAlign=middle;whiteSpace=wrap;rounded=0;" vertex="1" parent="1">
          <mxGeometry x="240" y="200" width="60" height="30" as="geometry" />
        </mxCell>
        <mxCell id="4yj2F9mNyj31AtL81ERM-8" value="" style="endArrow=none;html=1;rounded=0;entryX=0.5;entryY=0;entryDx=0;entryDy=0;exitX=0.5;exitY=1;exitDx=0;exitDy=0;" edge="1" parent="1" source="4yj2F9mNyj31AtL81ERM-4" target="4yj2F9mNyj31AtL81ERM-4">
          <mxGeometry width="50" height="50" relative="1" as="geometry">
            <mxPoint x="150" y="300" as="sourcePoint" />
            <mxPoint x="200" y="250" as="targetPoint" />
          </mxGeometry>
        </mxCell>
        <mxCell id="4yj2F9mNyj31AtL81ERM-9" value="" style="endArrow=none;html=1;rounded=0;exitX=0;exitY=0.25;exitDx=0;exitDy=0;entryX=1;entryY=0.25;entryDx=0;entryDy=0;" edge="1" parent="1" source="4yj2F9mNyj31AtL81ERM-4" target="4yj2F9mNyj31AtL81ERM-4">
          <mxGeometry width="50" height="50" relative="1" as="geometry">
            <mxPoint x="150" y="300" as="sourcePoint" />
            <mxPoint x="200" y="250" as="targetPoint" />
          </mxGeometry>
        </mxCell>
        <mxCell id="4yj2F9mNyj31AtL81ERM-10" value="INT" style="text;html=1;strokeColor=none;fillColor=none;align=center;verticalAlign=middle;whiteSpace=wrap;rounded=0;" vertex="1" parent="1">
          <mxGeometry x="230" y="250" width="60" height="30" as="geometry" />
        </mxCell>
        <mxCell id="4yj2F9mNyj31AtL81ERM-11" value="customerName" style="text;html=1;strokeColor=none;fillColor=none;align=center;verticalAlign=middle;whiteSpace=wrap;rounded=0;" vertex="1" parent="1">
          <mxGeometry x="110" y="290" width="60" height="30" as="geometry" />
        </mxCell>
        <mxCell id="4yj2F9mNyj31AtL81ERM-12" value="varchar(50)" style="text;html=1;strokeColor=none;fillColor=none;align=center;verticalAlign=middle;whiteSpace=wrap;rounded=0;" vertex="1" parent="1">
          <mxGeometry x="230" y="290" width="60" height="30" as="geometry" />
        </mxCell>
        <mxCell id="4yj2F9mNyj31AtL81ERM-13" value="Password" style="text;html=1;strokeColor=none;fillColor=none;align=center;verticalAlign=middle;whiteSpace=wrap;rounded=0;" vertex="1" parent="1">
          <mxGeometry x="100" y="330" width="60" height="30" as="geometry" />
        </mxCell>
        <mxCell id="4yj2F9mNyj31AtL81ERM-14" value="varchar(50)" style="text;html=1;strokeColor=none;fillColor=none;align=center;verticalAlign=middle;whiteSpace=wrap;rounded=0;" vertex="1" parent="1">
          <mxGeometry x="230" y="330" width="60" height="30" as="geometry" />
        </mxCell>
        <mxCell id="4yj2F9mNyj31AtL81ERM-15" value="Email" style="text;html=1;strokeColor=none;fillColor=none;align=center;verticalAlign=middle;whiteSpace=wrap;rounded=0;" vertex="1" parent="1">
          <mxGeometry x="90" y="370" width="60" height="30" as="geometry" />
        </mxCell>
        <mxCell id="4yj2F9mNyj31AtL81ERM-16" value="varchar(200)" style="text;html=1;strokeColor=none;fillColor=none;align=center;verticalAlign=middle;whiteSpace=wrap;rounded=0;" vertex="1" parent="1">
          <mxGeometry x="230" y="370" width="60" height="30" as="geometry" />
        </mxCell>
        <mxCell id="4yj2F9mNyj31AtL81ERM-17" value="" style="edgeStyle=orthogonalEdgeStyle;rounded=0;orthogonalLoop=1;jettySize=auto;html=1;" edge="1" parent="1" source="4yj2F9mNyj31AtL81ERM-18" target="4yj2F9mNyj31AtL81ERM-21">
          <mxGeometry relative="1" as="geometry" />
        </mxCell>
        <mxCell id="4yj2F9mNyj31AtL81ERM-18" value="Accounts" style="rounded=1;whiteSpace=wrap;html=1;" vertex="1" parent="1">
          <mxGeometry x="490" y="150" width="230" height="60" as="geometry" />
        </mxCell>
        <mxCell id="4yj2F9mNyj31AtL81ERM-19" value="" style="whiteSpace=wrap;html=1;aspect=fixed;" vertex="1" parent="1">
          <mxGeometry x="490" y="210" width="230" height="230" as="geometry" />
        </mxCell>
        <mxCell id="4yj2F9mNyj31AtL81ERM-20" value="AccountID" style="text;html=1;strokeColor=none;fillColor=none;align=center;verticalAlign=middle;whiteSpace=wrap;rounded=0;" vertex="1" parent="1">
          <mxGeometry x="490" y="270" width="60" height="30" as="geometry" />
        </mxCell>
        <mxCell id="4yj2F9mNyj31AtL81ERM-21" value="Coloumn" style="text;html=1;strokeColor=none;fillColor=none;align=center;verticalAlign=middle;whiteSpace=wrap;rounded=0;" vertex="1" parent="1">
          <mxGeometry x="500" y="220" width="60" height="30" as="geometry" />
        </mxCell>
        <mxCell id="4yj2F9mNyj31AtL81ERM-22" value="Data tyoe" style="text;html=1;strokeColor=none;fillColor=none;align=center;verticalAlign=middle;whiteSpace=wrap;rounded=0;" vertex="1" parent="1">
          <mxGeometry x="640" y="220" width="60" height="30" as="geometry" />
        </mxCell>
        <mxCell id="4yj2F9mNyj31AtL81ERM-23" value="" style="endArrow=none;html=1;rounded=0;entryX=0.5;entryY=0;entryDx=0;entryDy=0;exitX=0.5;exitY=1;exitDx=0;exitDy=0;" edge="1" parent="1" source="4yj2F9mNyj31AtL81ERM-19" target="4yj2F9mNyj31AtL81ERM-19">
          <mxGeometry width="50" height="50" relative="1" as="geometry">
            <mxPoint x="550" y="320" as="sourcePoint" />
            <mxPoint x="600" y="270" as="targetPoint" />
          </mxGeometry>
        </mxCell>
        <mxCell id="4yj2F9mNyj31AtL81ERM-24" value="" style="endArrow=none;html=1;rounded=0;exitX=0;exitY=0.25;exitDx=0;exitDy=0;entryX=1;entryY=0.25;entryDx=0;entryDy=0;" edge="1" parent="1" source="4yj2F9mNyj31AtL81ERM-19" target="4yj2F9mNyj31AtL81ERM-19">
          <mxGeometry width="50" height="50" relative="1" as="geometry">
            <mxPoint x="550" y="320" as="sourcePoint" />
            <mxPoint x="600" y="270" as="targetPoint" />
          </mxGeometry>
        </mxCell>
        <mxCell id="4yj2F9mNyj31AtL81ERM-25" value="INT" style="text;html=1;strokeColor=none;fillColor=none;align=center;verticalAlign=middle;whiteSpace=wrap;rounded=0;" vertex="1" parent="1">
          <mxGeometry x="630" y="270" width="60" height="30" as="geometry" />
        </mxCell>
        <mxCell id="4yj2F9mNyj31AtL81ERM-26" value="cardNumber" style="text;html=1;strokeColor=none;fillColor=none;align=center;verticalAlign=middle;whiteSpace=wrap;rounded=0;" vertex="1" parent="1">
          <mxGeometry x="500" y="300" width="60" height="30" as="geometry" />
        </mxCell>
        <mxCell id="4yj2F9mNyj31AtL81ERM-27" value="BIGINT" style="text;html=1;strokeColor=none;fillColor=none;align=center;verticalAlign=middle;whiteSpace=wrap;rounded=0;" vertex="1" parent="1">
          <mxGeometry x="630" y="300" width="60" height="30" as="geometry" />
        </mxCell>
        <mxCell id="4yj2F9mNyj31AtL81ERM-28" value="typeOfAccount" style="text;html=1;strokeColor=none;fillColor=none;align=center;verticalAlign=middle;whiteSpace=wrap;rounded=0;" vertex="1" parent="1">
          <mxGeometry x="500" y="340" width="60" height="30" as="geometry" />
        </mxCell>
        <mxCell id="4yj2F9mNyj31AtL81ERM-29" value="VARCHAR(10)" style="text;html=1;strokeColor=none;fillColor=none;align=center;verticalAlign=middle;whiteSpace=wrap;rounded=0;" vertex="1" parent="1">
          <mxGeometry x="630" y="340" width="60" height="30" as="geometry" />
        </mxCell>
        <mxCell id="4yj2F9mNyj31AtL81ERM-30" value="customerID" style="text;html=1;strokeColor=none;fillColor=none;align=center;verticalAlign=middle;whiteSpace=wrap;rounded=0;" vertex="1" parent="1">
          <mxGeometry x="510" y="400" width="60" height="30" as="geometry" />
        </mxCell>
        <mxCell id="4yj2F9mNyj31AtL81ERM-31" value="INT" style="text;html=1;strokeColor=none;fillColor=none;align=center;verticalAlign=middle;whiteSpace=wrap;rounded=0;" vertex="1" parent="1">
          <mxGeometry x="630" y="400" width="60" height="30" as="geometry" />
        </mxCell>
        <mxCell id="4yj2F9mNyj31AtL81ERM-32" value="" style="edgeStyle=orthogonalEdgeStyle;rounded=0;orthogonalLoop=1;jettySize=auto;html=1;" edge="1" parent="1" source="4yj2F9mNyj31AtL81ERM-33" target="4yj2F9mNyj31AtL81ERM-36">
          <mxGeometry relative="1" as="geometry" />
        </mxCell>
        <mxCell id="4yj2F9mNyj31AtL81ERM-33" value="Transactions" style="rounded=1;whiteSpace=wrap;html=1;" vertex="1" parent="1">
          <mxGeometry x="920" y="140" width="230" height="60" as="geometry" />
        </mxCell>
        <mxCell id="4yj2F9mNyj31AtL81ERM-34" value="" style="whiteSpace=wrap;html=1;aspect=fixed;" vertex="1" parent="1">
          <mxGeometry x="920" y="200" width="230" height="230" as="geometry" />
        </mxCell>
        <mxCell id="4yj2F9mNyj31AtL81ERM-35" value="transacitonID" style="text;html=1;strokeColor=none;fillColor=none;align=center;verticalAlign=middle;whiteSpace=wrap;rounded=0;" vertex="1" parent="1">
          <mxGeometry x="930" y="260" width="60" height="30" as="geometry" />
        </mxCell>
        <mxCell id="4yj2F9mNyj31AtL81ERM-36" value="Coloumn" style="text;html=1;strokeColor=none;fillColor=none;align=center;verticalAlign=middle;whiteSpace=wrap;rounded=0;" vertex="1" parent="1">
          <mxGeometry x="930" y="210" width="60" height="30" as="geometry" />
        </mxCell>
        <mxCell id="4yj2F9mNyj31AtL81ERM-37" value="Data tyoe" style="text;html=1;strokeColor=none;fillColor=none;align=center;verticalAlign=middle;whiteSpace=wrap;rounded=0;" vertex="1" parent="1">
          <mxGeometry x="1070" y="210" width="60" height="30" as="geometry" />
        </mxCell>
        <mxCell id="4yj2F9mNyj31AtL81ERM-38" value="" style="endArrow=none;html=1;rounded=0;entryX=0.5;entryY=0;entryDx=0;entryDy=0;exitX=0.5;exitY=1;exitDx=0;exitDy=0;" edge="1" parent="1" source="4yj2F9mNyj31AtL81ERM-34" target="4yj2F9mNyj31AtL81ERM-34">
          <mxGeometry width="50" height="50" relative="1" as="geometry">
            <mxPoint x="980" y="310" as="sourcePoint" />
            <mxPoint x="1030" y="260" as="targetPoint" />
          </mxGeometry>
        </mxCell>
        <mxCell id="4yj2F9mNyj31AtL81ERM-39" value="" style="endArrow=none;html=1;rounded=0;exitX=0;exitY=0.25;exitDx=0;exitDy=0;entryX=1;entryY=0.25;entryDx=0;entryDy=0;" edge="1" parent="1" source="4yj2F9mNyj31AtL81ERM-34" target="4yj2F9mNyj31AtL81ERM-34">
          <mxGeometry width="50" height="50" relative="1" as="geometry">
            <mxPoint x="980" y="310" as="sourcePoint" />
            <mxPoint x="1030" y="260" as="targetPoint" />
          </mxGeometry>
        </mxCell>
        <mxCell id="4yj2F9mNyj31AtL81ERM-40" value="INT" style="text;html=1;strokeColor=none;fillColor=none;align=center;verticalAlign=middle;whiteSpace=wrap;rounded=0;" vertex="1" parent="1">
          <mxGeometry x="1060" y="260" width="60" height="30" as="geometry" />
        </mxCell>
        <mxCell id="4yj2F9mNyj31AtL81ERM-41" value="typeofTransaction" style="text;html=1;strokeColor=none;fillColor=none;align=center;verticalAlign=middle;whiteSpace=wrap;rounded=0;" vertex="1" parent="1">
          <mxGeometry x="940" y="290" width="60" height="30" as="geometry" />
        </mxCell>
        <mxCell id="4yj2F9mNyj31AtL81ERM-42" value="varchar(10)" style="text;html=1;strokeColor=none;fillColor=none;align=center;verticalAlign=middle;whiteSpace=wrap;rounded=0;" vertex="1" parent="1">
          <mxGeometry x="1060" y="290" width="60" height="30" as="geometry" />
        </mxCell>
        <mxCell id="4yj2F9mNyj31AtL81ERM-43" value="transTimeStamp" style="text;html=1;strokeColor=none;fillColor=none;align=center;verticalAlign=middle;whiteSpace=wrap;rounded=0;" vertex="1" parent="1">
          <mxGeometry x="960" y="335" width="20" height="20" as="geometry" />
        </mxCell>
        <mxCell id="4yj2F9mNyj31AtL81ERM-44" value="DATETIME" style="text;html=1;strokeColor=none;fillColor=none;align=center;verticalAlign=middle;whiteSpace=wrap;rounded=0;" vertex="1" parent="1">
          <mxGeometry x="1060" y="330" width="60" height="30" as="geometry" />
        </mxCell>
        <mxCell id="4yj2F9mNyj31AtL81ERM-45" value="accountID" style="text;html=1;strokeColor=none;fillColor=none;align=center;verticalAlign=middle;whiteSpace=wrap;rounded=0;" vertex="1" parent="1">
          <mxGeometry x="920" y="390" width="60" height="30" as="geometry" />
        </mxCell>
        <mxCell id="4yj2F9mNyj31AtL81ERM-46" value="INT" style="text;html=1;strokeColor=none;fillColor=none;align=center;verticalAlign=middle;whiteSpace=wrap;rounded=0;" vertex="1" parent="1">
          <mxGeometry x="1050" y="390" width="60" height="30" as="geometry" />
        </mxCell>
        <mxCell id="4yj2F9mNyj31AtL81ERM-48" value="Primary Key" style="rounded=0;whiteSpace=wrap;html=1;fillColor=#f8cecc;strokeColor=#b85450;" vertex="1" parent="1">
          <mxGeometry x="10" y="250" width="80" height="30" as="geometry" />
        </mxCell>
        <mxCell id="4yj2F9mNyj31AtL81ERM-58" style="edgeStyle=orthogonalEdgeStyle;rounded=0;orthogonalLoop=1;jettySize=auto;html=1;entryX=0;entryY=0.25;entryDx=0;entryDy=0;fillColor=#6a00ff;strokeColor=#3700CC;" edge="1" parent="1" source="4yj2F9mNyj31AtL81ERM-49" target="4yj2F9mNyj31AtL81ERM-53">
          <mxGeometry relative="1" as="geometry">
            <Array as="points">
              <mxPoint x="450" y="100" />
              <mxPoint x="740" y="100" />
              <mxPoint x="740" y="398" />
            </Array>
          </mxGeometry>
        </mxCell>
        <mxCell id="4yj2F9mNyj31AtL81ERM-49" value="Primary Key" style="rounded=0;whiteSpace=wrap;html=1;fillColor=#f8cecc;strokeColor=#b85450;" vertex="1" parent="1">
          <mxGeometry x="410" y="270" width="80" height="30" as="geometry" />
        </mxCell>
        <mxCell id="4yj2F9mNyj31AtL81ERM-50" value="balance" style="text;html=1;strokeColor=none;fillColor=none;align=center;verticalAlign=middle;whiteSpace=wrap;rounded=0;" vertex="1" parent="1">
          <mxGeometry x="500" y="370" width="60" height="30" as="geometry" />
        </mxCell>
        <mxCell id="4yj2F9mNyj31AtL81ERM-51" value="DECIMAL(30,2)" style="text;html=1;strokeColor=none;fillColor=none;align=center;verticalAlign=middle;whiteSpace=wrap;rounded=0;" vertex="1" parent="1">
          <mxGeometry x="630" y="370" width="60" height="30" as="geometry" />
        </mxCell>
        <mxCell id="4yj2F9mNyj31AtL81ERM-52" value="Primary Key" style="rounded=0;whiteSpace=wrap;html=1;fillColor=#f8cecc;strokeColor=#b85450;" vertex="1" parent="1">
          <mxGeometry x="840" y="260" width="80" height="30" as="geometry" />
        </mxCell>
        <mxCell id="4yj2F9mNyj31AtL81ERM-59" style="edgeStyle=orthogonalEdgeStyle;rounded=0;orthogonalLoop=1;jettySize=auto;html=1;entryX=0.5;entryY=0;entryDx=0;entryDy=0;fillColor=#d80073;strokeColor=#A50040;" edge="1" parent="1" source="4yj2F9mNyj31AtL81ERM-53" target="4yj2F9mNyj31AtL81ERM-49">
          <mxGeometry relative="1" as="geometry">
            <Array as="points">
              <mxPoint x="740" y="405" />
              <mxPoint x="740" y="100" />
              <mxPoint x="450" y="100" />
            </Array>
          </mxGeometry>
        </mxCell>
        <mxCell id="4yj2F9mNyj31AtL81ERM-53" value="Foreign Key" style="rounded=0;whiteSpace=wrap;html=1;fillColor=#dae8fc;strokeColor=#6c8ebf;" vertex="1" parent="1">
          <mxGeometry x="850" y="390" width="70" height="30" as="geometry" />
        </mxCell>
        <mxCell id="4yj2F9mNyj31AtL81ERM-57" style="edgeStyle=orthogonalEdgeStyle;rounded=0;orthogonalLoop=1;jettySize=auto;html=1;fillColor=#d80073;strokeColor=#A50040;" edge="1" parent="1" source="4yj2F9mNyj31AtL81ERM-54" target="4yj2F9mNyj31AtL81ERM-48">
          <mxGeometry relative="1" as="geometry">
            <Array as="points">
              <mxPoint x="455" y="450" />
              <mxPoint x="50" y="450" />
            </Array>
          </mxGeometry>
        </mxCell>
        <mxCell id="4yj2F9mNyj31AtL81ERM-54" value="Foreign Key" style="rounded=0;whiteSpace=wrap;html=1;fillColor=#dae8fc;strokeColor=#6c8ebf;" vertex="1" parent="1">
          <mxGeometry x="420" y="400" width="70" height="30" as="geometry" />
        </mxCell>
        <mxCell id="4yj2F9mNyj31AtL81ERM-55" value="amount" style="text;html=1;strokeColor=none;fillColor=none;align=center;verticalAlign=middle;whiteSpace=wrap;rounded=0;" vertex="1" parent="1">
          <mxGeometry x="920" y="360" width="60" height="30" as="geometry" />
        </mxCell>
        <mxCell id="4yj2F9mNyj31AtL81ERM-56" value="DECIMAL(30,2)" style="text;html=1;strokeColor=none;fillColor=none;align=center;verticalAlign=middle;whiteSpace=wrap;rounded=0;" vertex="1" parent="1">
          <mxGeometry x="1060" y="360" width="60" height="30" as="geometry" />
        </mxCell>
      </root>
    </mxGraphModel>
  </diagram>
</mxfile>
